<?xml version="1.0" encoding="utf-8"?>
<!-- Generator: Adobe Illustrator 20.1.0, SVG Export Plug-In . SVG Version: 6.00 Build 0)  -->
<svg version="1.1" id="Calque_1" xmlns="http://www.w3.org/2000/svg" xmlns:xlink="http://www.w3.org/1999/xlink" x="0px" y="0px"
	 viewBox="0 0 1000 1000" style="enable-background:new 0 0 1000 1000;" xml:space="preserve">
<style type="text/css">
	.st0{fill:#FFFFFF;}
	.st1{fill:none;}
	.st2{fill:#F37923;}
</style>
<path class="st0" d="M105.2,1c-11.1,0-20,9-20,20s9,20,20,20c11.1,0,20-9,20-20S116.2,1,105.2,1z M116.7,15.1c0,0.3,0,0.5,0,0.8
	c0,7.8-6,16.9-16.9,16.9c-3.3,0-6.5-1-9.1-2.7c0.5,0.1,0.9,0.1,1.4,0.1c2.8,0,5.3-0.9,7.4-2.5c-2.6,0-4.8-1.8-5.5-4.1
	c0.4,0.1,0.7,0.1,1.1,0.1c0.5,0,1.1-0.1,1.6-0.2c-2.7-0.5-4.8-2.9-4.8-5.8v-0.1c0.8,0.4,1.7,0.7,2.7,0.7C93,17.2,92,15.4,92,13.4
	c0-1.1,0.3-2.1,0.8-3c2.9,3.6,7.3,6,12.2,6.2c-0.1-0.4-0.2-0.9-0.2-1.4c0-3.3,2.7-5.9,5.9-5.9c1.7,0,3.2,0.7,4.3,1.9
	c1.4-0.3,2.6-0.8,3.8-1.4c-0.4,1.4-1.4,2.5-2.6,3.3c1.2-0.1,2.3-0.5,3.4-0.9C118.8,13.3,117.8,14.3,116.7,15.1z"/>
<rect class="st1" width="42" height="42"/>
<rect x="42.1" y="0.2" class="st1" width="42" height="42"/>
<rect x="84" class="st1" width="42" height="42"/>
<rect x="126" class="st1" width="42" height="42"/>
<polygon class="st2" points="147.9,19.6 135.7,7.5 133.9,9.3 147.9,23.2 161.4,9.7 159.6,7.9 "/>
<rect x="168.1" class="st1" width="42" height="42"/>
<polygon class="st0" points="203.5,9.7 201.7,7.9 190.1,19.5 189.5,19 189.5,19.1 177.8,7.5 176,9.3 187.7,20.9 176,32.5 
	177.8,34.3 189.5,22.7 190,23.2 190.1,23.1 201.7,34.7 203.5,32.9 191.9,21.3 "/>
<path class="st0" d="M63.1,1.3c-11,0-19.9,8.9-19.9,19.9s8.9,19.9,19.9,19.9S83,32.2,83,21.2S74.1,1.3,63.1,1.3z M76,26.3
	c0,2.6-2.1,4.7-4.7,4.7H55.7c-2.6,0-4.7-2.1-4.7-4.7v-9.6c0-2.6,2.1-4.7,4.7-4.7h15.6c2.6,0,4.7,2.1,4.7,4.7V26.3z"/>
<polygon class="st0" points="60,27.5 60,14.9 67.8,21.2 "/>
<path class="st0" d="M21,1C10,1,1.1,9.9,1.1,20.9S10,40.8,21,40.8s19.9-8.9,19.9-19.9S32,1,21,1z M27.2,21.8h-3.9v14.3H18V22h-4
	v-5.3h3.8l0.1-3.1c0-4,1.2-6.6,5.9-6.6H28v5h-2.7c-1.8,0-1.9,1-1.9,2.3V17h4.4L27.2,21.8z"/>
</svg>
